<svg xmlns="http://www.w3.org/2000/svg" xmlns:xlink="http://www.w3.org/1999/xlink" xmlns:fi="http://pattern.flaticon.com/" x="0" y="0" width="1600" height="800" viewBox="0 0 1600 800"><rect x="0px" y="0px" width="100%" height="100%" opacity="1" fill="#ada6ca"/><defs><g transform="matrix(1.3583331932190024 0.36396428217541976 -0.36396428217541976 1.3583331932190024 317.56237321317076 295.36055200047014)" id="L1_9"><path d="m27 17v4c1.103 0 2-.897 2-2s-.897-2-2-2z"/><path d="m55 22v-9.217c-.349.135-.725.217-1.121.217-.743 0-1.439-.271-2.001-.744-.543.457-1.235.744-1.999.744-.729 0-1.46-.172-2.112-.499l-2.019-1.009c-.644-.322-1.365-.492-2.085-.492-2.571 0-4.663 2.092-4.663 4.663v6.337c0 2.757 2.243 5 5 5h6c2.757 0 5-2.243 5-5zm-3.707-8.707 1.414 1.414-1.293 1.293 1.293 1.293-1.414 1.414-2.707-2.707zm-5.293 3.707h2v2h-2zm-4.707-2.293 1.414-1.414 2.707 2.707-2.707 2.707-1.414-1.414 1.293-1.293zm11.707 10.293c-1.415 0-2.162-.747-2.708-1.292-.49-.491-.731-.708-1.294-.708s-.804.217-1.294.708c-.546.545-1.293 1.292-2.708 1.292-1.413 0-2.16-.748-2.705-1.293-.49-.49-.73-.707-1.291-.707v-2c1.413 0 2.16.748 2.705 1.293.49.49.73.707 1.291.707.562 0 .804-.217 1.294-.708.546-.545 1.293-1.292 2.708-1.292s2.162.747 2.708 1.292c.49.491.731.708 1.294.708z"/><path d="m7 15v-1.559c0-2.449 1.992-4.441 4.441-4.441.479 0 .951.077 1.405.228l4.018 1.339c-.236-1.076-.774-2.063-1.571-2.86l1.414-1.414c1.002 1.002 1.69 2.23 2.035 3.567l2.122.708c-.236-1.076-.774-2.063-1.571-2.86l1.414-1.414c1.037 1.036 1.739 2.316 2.07 3.707h1.223c1.654 0 3 1.346 3 3v2c.591 0 1.148.137 1.654.368.226-1.163.346-2.345.346-3.531 0-4.873-3.965-8.838-8.838-8.838h-6.324c-4.873 0-8.838 3.965-8.838 8.838 0 1.186.12 2.368.347 3.53.505-.231 1.062-.368 1.653-.368z"/><path d="m18.981 34.642c-.319.116-.647.205-.981.265v2.029c.777-.099 1.52-.325 2.221-.641z"/><path d="m16 36.936v-2.029c-.335-.059-.662-.149-.981-.265l-1.24 1.653c.701.316 1.444.542 2.221.641z"/><path d="m19.707 31.879.185-.185-.673-2.694h-4.439l-.673 2.694.185.185c.714.712 1.7 1.121 2.708 1.121s1.994-.409 2.707-1.121z"/><path d="m25 22v-3.586l-2.615 2.615c.392.518.615 1.139.615 1.8v3.146c1.207-.914 2-2.348 2-3.975z"/><path d="m57 17v4c1.103 0 2-.897 2-2s-.897-2-2-2z"/><path d="m57 10.193v4.807c.681 0 1.312.187 1.874.488l1.859-4.956c.177-.474.267-.97.267-1.474 0-1.503-.799-2.842-2.034-3.586.008.113.034.221.034.336 0 .985-.297 1.934-.859 2.743z"/><path d="m52.538 33.961c-.462-.285-.94-.547-1.432-.791l-2.317 1.737 2.718 1.631z"/><path d="m35.487 15.301c.468-.191.977-.301 1.513-.301h.034c.334-3.364 3.179-6 6.629-6 1.029 0 2.06.243 2.979.703l2.019 1.009c.376.188.797.288 1.218.288.618 0 1.121-.503 1.121-1.121 0-.295-.12-.584-.329-.793l-1.378-1.378 1.414-1.414 1.379 1.379c.59.589.914 1.373.914 2.206 0 .219-.024.433-.067.64l.153.153c.212.211.493.328.793.328.619 0 1.122-.503 1.122-1.121 0-.3-.117-.581-.329-.793l-1.378-1.379 1.414-1.414 1.378 1.378c.047.047.081.102.125.152l.287-.414c.328-.472.502-1.026.502-1.601 0-1.549-1.26-2.808-2.808-2.808-.096 0-.188.004-.28.014l-11.375 1.137c-4.297.43-7.537 4.01-7.537 8.328 0 .902.145 1.792.429 2.646z"/><path d="m49.869 31.599-.65-2.599h-4.438l-.65 2.599 2.869 2.151z"/><path d="m41.462 33.961 1.031 2.578 2.718-1.631-2.317-1.737c-.492.242-.97.505-1.432.79z"/><path d="m37 21v-4c-1.103 0-2 .897-2 2s.897 2 2 2z"/><path d="m27 53h4v8h-4z"/><path d="m24.575 35.425c-1.856 2.253-4.612 3.575-7.575 3.575s-5.718-1.322-7.575-3.575c-3.998 3.327-6.425 8.311-6.425 13.658v1.917h4v-3.586c0-.645-.251-1.251-.707-1.707l1.414-1.415c.834.834 1.293 1.942 1.293 3.122v13.586h16v-13.586c0-1.18.459-2.288 1.293-3.122l1.414 1.415c-.456.456-.707 1.062-.707 1.707v3.586h4v-1.917c0-5.347-2.427-10.331-6.425-13.658z"/><path d="m3 53h4v8h-4z"/><path d="m33 53h4v8h-4z"/><path d="m54.221 35.138-1.729 4.323-5.492-3.295-5.492 3.295-1.729-4.323c-4.209 3.323-6.779 8.442-6.779 13.945v1.917h4v-3.586c0-.645-.251-1.251-.707-1.707l1.414-1.415c.834.834 1.293 1.942 1.293 3.122v13.586h16v-13.586c0-1.18.459-2.288 1.293-3.122l1.414 1.415c-.456.456-.707 1.062-.707 1.707v3.586h4v-1.917c0-5.503-2.57-10.622-6.779-13.945z"/><path d="m7 21v-4c-1.103 0-2 .897-2 2s.897 2 2 2z"/><path d="m57 53h4v8h-4z"/><path d="m22.974 34.232c-.567-.372-1.162-.708-1.776-1.016l-.077.077c-.124.124-.254.24-.389.351l1.196 1.595c.374-.304.73-.633 1.046-1.007z"/><path d="m25 13c0-.551-.448-1-1-1h-1v1.388l-4-1.334v1.333l-6.786-2.262c-.25-.083-.51-.125-.773-.125-1.346 0-2.441 1.095-2.441 2.441v2.145l4 4 1.586-1.586c1.291-1.29 3.537-1.29 4.828 0l1.586 1.586 4-4zm-11 4c-.552 0-1-.448-1-1s.448-1 1-1 1 .448 1 1-.448 1-1 1zm6 0c-.552 0-1-.448-1-1s.448-1 1-1 1 .448 1 1-.448 1-1 1z"/><path d="m21 22.829c0-.267-.104-.519-.293-.708l-2.707-2.707c-.535-.534-1.465-.535-2 0l-2.707 2.707c-.189.189-.293.441-.293.708v4.07c.323.066.658.101 1 .101h6c.342 0 .677-.035 1-.101z"/><path d="m9 22c0 1.627.793 3.061 2 3.974v-3.146c0-.661.223-1.282.615-1.8l-2.615-2.614z"/><path d="m12.071 35.239 1.196-1.595c-.134-.112-.265-.227-.389-.351l-.077-.077c-.614.308-1.209.644-1.776 1.016.317.374.673.703 1.046 1.007z"/></g><g transform="matrix(0.3125 0 0 0.3125 77.5 340)" id="L1_10"><g><path d="m21.346 30.368c.506-.231 1.063-.368 1.654-.368v-.838c0-2.322 1.48-4.376 3.684-5.11l.633 1.896c-1.386.463-2.317 1.754-2.317 3.214v7.838c0 2.757 2.243 5 5 5h4c2.757 0 5-2.243 5-5v-9h2v2c.591 0 1.148.137 1.654.368.226-1.163.346-2.345.346-3.53 0-4.873-3.965-8.838-8.838-8.838h-4.324c-4.873 0-8.838 3.965-8.838 8.838 0 1.185.12 2.367.346 3.53zm15.654 9.632c-1.302 0-1.984-.818-2.436-1.359-.403-.485-.562-.641-.899-.641s-.496.156-.899.641c-.452.541-1.134 1.359-2.436 1.359-1.301 0-1.982-.818-2.433-1.36-.426-.511-.576-.64-.897-.64v-2c1.301 0 1.983.818 2.434 1.36.425.511.575.64.896.64.337 0 .497-.156.9-.641.451-.541 1.133-1.359 2.435-1.359s1.984.818 2.436 1.359c.403.485.562.641.899.641zm.707-7.707-1.414 1.414-2.707-2.707 2.707-2.707 1.414 1.414-1.293 1.293zm-3-10 4 4-1.414 1.414-4-4zm-5 0 4 4-1.414 1.414-4-4zm.707 8.707-2.707 2.707-1.414-1.414 1.293-1.293-1.293-1.293 1.414-1.414z"/><path d="m43 40.974v-3.356l-.167-.084c-.523.273-1.107.439-1.733.455.246 1.218.944 2.262 1.9 2.985z"/><path d="m48 48c1.345 0 2.606-.583 3.474-1.583-.415-.485-.739-1.049-.947-1.673l-.253-.758c-.091.004-.181.014-.274.014h-4c-.093 0-.183-.01-.275-.014l-.253.758c-.208.624-.532 1.188-.947 1.673.869 1 2.129 1.583 3.475 1.583z"/><path d="m23 32c-1.103 0-2 .897-2 2s.897 2 2 2z"/><path d="m19.025 27.586-6.856-1.523c-.184-.042-.374-.063-.565-.063-1.436 0-2.604 1.168-2.604 2.604v8.396c0 2.757 2.243 5 5 5h4c2.418 0 4.439-1.726 4.9-4.01-2.159-.055-3.9-1.818-3.9-3.99 0-.791.238-1.524.635-2.145-.353-1.399-.557-2.829-.61-4.269zm-8.025 3.414c0-.552.448-1 1-1s1 .448 1 1-.448 1-1 1-1-.448-1-1zm8.895 6.447-.105.211c-.723 1.445-2.175 2.342-3.79 2.342s-3.067-.897-3.789-2.342l-.105-.211 1.789-.895.105.212c.381.762 1.147 1.236 2 1.236s1.619-.474 2-1.236l.105-.211z"/><path d="m45.799 25.03c2.298 1.915 5.21 2.97 8.201 2.97 1.654 0 3 1.346 3 3v6c0 3.068-1.987 5.675-4.74 6.618l.164.493c.253.761.788 1.377 1.504 1.735l.779.39c.47.235.918.499 1.354.776l1.761-1.258c1.99-1.421 3.178-3.728 3.178-6.171 0-.341-.023-.686-.069-1.025l-1.436-10.525c-.78-5.72-5.721-10.033-11.494-10.033-2.07 0-4.058.544-5.822 1.572 1.144 1.261 1.992 2.787 2.444 4.479z"/><path d="m55 37v-.382l-2 1v3.356c1.207-.913 2-2.347 2-3.974z"/><path d="m40 40.587c-.844 1.406-2.164 2.492-3.74 3.032l.164.493c.253.761.788 1.377 1.504 1.735l.779.39c.448.224.876.475 1.293.737.42-.264.848-.516 1.29-.737l.779-.39c.717-.358 1.251-.975 1.504-1.735l.164-.493c-1.573-.541-2.893-1.626-3.737-3.032z"/><path d="m41 32v4c1.103 0 2-.897 2-2s-.897-2-2-2z"/><path d="m55 34.382v-3.382c0-.552-.449-1-1-1-3.257 0-6.425-1.093-9.003-3.068-.008 1.661-.225 3.313-.632 4.924.397.62.635 1.353.635 2.144 0 .732-.212 1.409-.556 2h7.32zm-4-1.382c0-.552.448-1 1-1s1 .448 1 1-.448 1-1 1-1-.448-1-1z"/><path d="m14.056 49-2.692-1.615c-.133.083-.256.18-.399.251l-.528.264 1.056 2.638z"/><path d="m50 42c.342 0 .677-.035 1-.101v-3.899h-6v3.899c.323.066.658.101 1 .101z"/><path d="m34 44h-4c-.093 0-.183-.01-.275-.014l-.253.758c-.208.624-.532 1.188-.947 1.673.869 1 2.129 1.583 3.475 1.583 1.345 0 2.606-.583 3.474-1.583-.415-.485-.739-1.049-.947-1.673l-.253-.758c-.091.004-.181.014-.274.014z"/><path d="m16 50.166-5.492 3.296-1.822-4.556c-3.091 2.093-5.111 5.387-5.578 9.094h3.892v-2h2v6h8v-2.348c0-2.756.744-5.374 2.081-7.637z"/><path d="m41 58h3.892c-.538-4.278-3.145-8.008-7.078-9.975l-.763-.381c-1.247 1.485-3.085 2.356-5.051 2.356-1.967 0-3.804-.871-5.051-2.356l-.763.381c-3.933 1.966-6.539 5.697-7.078 9.975h3.892v-2h2v6h14v-6h2z"/><path d="m19 60h4v2h-4z"/><path d="m41 60h4v2h-4z"/><path d="m57 60h4v2h-4z"/><path d="m19.143 45.948c-.25-.372-.47-.767-.615-1.204l-.253-.758c-.092.004-.182.014-.275.014h-4c-.093 0-.183-.01-.275-.014l-.253.758c-.146.437-.365.832-.616 1.204l3.144 1.886z"/><path d="m57 58h3.892c-.538-4.278-3.145-8.008-7.078-9.975l-.763-.381c-1.246 1.485-3.084 2.356-5.051 2.356s-3.804-.871-5.051-2.356l-.763.381c-.146.073-.287.156-.43.235 3.294 2.806 5.244 6.919 5.244 11.392v2.348h8v-6h2z"/><path d="m22.244 48.26c-.143-.079-.285-.162-.43-.235l-.779-.39c-.143-.071-.266-.168-.4-.251l-2.692 1.616 2.272 1.363c.602-.762 1.281-1.465 2.029-2.103z"/><path d="m23.998 46.973c.418-.262.845-.513 1.293-.737l.779-.39c.717-.358 1.251-.975 1.504-1.735l.164-.493c-1.576-.54-2.896-1.625-3.74-3.032-.844 1.406-2.164 2.492-3.74 3.032l.164.493c.253.761.788 1.377 1.504 1.735l.779.39c.445.221.874.473 1.293.737z"/><path d="m5 34c0 1.103.897 2 2 2v-4c-1.103 0-2 .897-2 2z"/><path d="m18.162 18h-2.919c-2.654 0-5.168-.914-7.183-2.592-.687.88-1.06 1.957-1.06 3.092 0 1.318.509 2.554 1.424 3.499l-4.147-1.612-.04.06c-.809 1.214-1.237 2.628-1.237 4.087 0 1.968.767 3.818 2.158 5.21l.503.503c.421-.15.867-.247 1.339-.247v-1.396c0-2.539 2.065-4.604 4.604-4.604.338 0 .675.037 1 .11l6.479 1.439c.303-2.54 1.486-4.811 3.237-6.502-1.272-.682-2.685-1.047-4.158-1.047z"/><path d="m3 60h4v2h-4z"/></g><g><path d="m16 10v-5c0-.552.449-1 1-1h8v-2h-8c-1.654 0-3 1.346-3 3v5l-2.4-1.8-1.2 1.6 4.6 3.45 4.6-3.45-1.2-1.6z"/><path d="m52.4 8.2-2.4 1.8v-5c0-1.654-1.346-3-3-3h-8v2h8c.551 0 1 .448 1 1v5l-2.4-1.8-1.2 1.6 4.6 3.45 4.6-3.45z"/><path d="m36.167 6.247 1.54-1.54-1.414-1.414-1.54 1.54c-.524-.348-1.116-.602-1.753-.732v-2.101h-2v2.101c-.637.13-1.229.384-1.753.732l-1.54-1.54-1.414 1.414 1.54 1.54c-.348.525-.602 1.116-.732 1.753h-2.101v2h2.101c.13.637.384 1.228.732 1.753l-1.54 1.54 1.414 1.414 1.54-1.54c.525.348 1.116.602 1.753.732v2.101h2v-2.101c.637-.13 1.229-.384 1.753-.732l1.54 1.54 1.414-1.414-1.54-1.54c.348-.524.602-1.116.732-1.753h2.101v-2h-2.101c-.13-.637-.384-1.228-.732-1.753zm-5.841.265c.421.374.674.908.674 1.488 0 1.041-.803 1.89-1.821 1.982-.108-.309-.179-.636-.179-.982 0-1.035.527-1.949 1.326-2.488z"/></g></g><g transform="matrix(0.3125 0 0 0.3125 252.5 340)" id="L1_11"><path d="m27.991 42.958c-.41.532-.939.965-1.542 1.29.376.49.813.927 1.303 1.303.325-.603.758-1.132 1.29-1.542-.401-.297-.754-.65-1.051-1.051z"/><path d="m27.991 37.042c.297-.401.65-.754 1.051-1.051-.532-.41-.965-.939-1.29-1.542-.49.376-.927.813-1.303 1.303.603.325 1.132.758 1.542 1.29z"/><path d="m32 35c1.076 0 2.028-.606 2.509-1.527-.78-.301-1.624-.473-2.509-.473s-1.729.172-2.51.473c.482.921 1.434 1.527 2.51 1.527z"/><path d="m36.009 37.042c.41-.532.939-.965 1.542-1.29-.376-.49-.813-.927-1.303-1.303-.325.603-.758 1.132-1.29 1.542.401.297.754.65 1.051 1.051z"/><circle cx="32" cy="40" r="3"/><path d="m32 45c-1.076 0-2.028.606-2.509 1.527.78.301 1.624.473 2.509.473s1.729-.172 2.51-.473c-.482-.921-1.434-1.527-2.51-1.527z"/><path d="m25.473 37.491c-.301.78-.473 1.624-.473 2.509s.172 1.729.473 2.51c.921-.482 1.527-1.434 1.527-2.51s-.606-2.028-1.527-2.509z"/><path d="m34.469 12.186c-.604-.753-1.504-1.186-2.469-1.186s-1.865.433-2.469 1.187l-10.857 13.571c-2.369 2.962-3.674 6.681-3.674 10.474 0 9.246 7.522 16.768 16.768 16.768h.465c9.245 0 16.767-7.522 16.767-16.768 0-3.793-1.305-7.513-3.674-10.475zm-7.469 8.814h10v2h-10zm5 28c-4.962 0-9-4.038-9-9s4.038-9 9-9 9 4.038 9 9-4.038 9-9 9z"/><path d="m37 40c0 1.076.606 2.028 1.527 2.509.301-.78.473-1.624.473-2.509s-.172-1.729-.473-2.51c-.921.482-1.527 1.434-1.527 2.51z"/><path d="m36.009 42.958c-.297.401-.65.754-1.051 1.051.532.41.965.939 1.29 1.542.49-.376.927-.813 1.303-1.303-.603-.325-1.132-.758-1.542-1.29z"/><path d="m6 22.874c0-2.007.413-3.955 1.229-5.789l1.309-2.945 8.81 3.672 2.6-3.25-10.296-4.29c-.431-.18-.892-.272-1.358-.272-1.395 0-2.659.822-3.226 2.096l-1.495 3.364c-1.037 2.334-1.573 4.86-1.573 7.414 0 5.628 2.6 10.928 7.026 14.383-.015-.34-.026-.681-.026-1.025 0-1.395.141-2.781.395-4.143-2.158-2.552-3.395-5.824-3.395-9.215z"/><path d="m60.427 15.46-1.495-3.364c-.567-1.274-1.831-2.096-3.226-2.096-.466 0-.927.092-1.358.272l-10.296 4.29 2.6 3.25 8.81-3.672 1.309 2.945c.816 1.834 1.229 3.782 1.229 5.789 0 3.392-1.237 6.663-3.395 9.216.254 1.361.395 2.747.395 4.142 0 .343-.011.684-.026 1.024 4.426-3.454 7.026-8.755 7.026-14.382 0-2.554-.536-5.08-1.573-7.414z"/><path d="m37.591 9.686c-1.366-1.707-3.404-2.686-5.591-2.686s-4.225.979-5.592 2.688l-10.857 13.571c-2.935 3.668-4.551 8.275-4.551 12.973 0 11.452 9.316 20.768 20.768 20.768h.465c11.451 0 20.767-9.316 20.767-20.768 0-4.698-1.616-9.306-4.551-12.973zm-5.359 45.314h-.465c-10.348 0-18.767-8.419-18.767-18.768 0-4.245 1.46-8.409 4.113-11.724l10.857-13.571c.985-1.231 2.454-1.937 4.03-1.937s3.045.706 4.03 1.937l10.857 13.572c2.653 3.314 4.113 7.478 4.113 11.723 0 10.349-8.419 18.768-18.768 18.768z"/></g><g transform="matrix(1.0564813725036684 -0.2830833305808821 0.2830833305808821 1.0564813725036684 132.41559765279536 150.21418126074641)" id="L1_12"><path d="m58.919 36.947-.676-.488.357-.752c.265-.558.4-1.132.4-1.707 0-.467-.093-.945-.275-1.423l-.292-.765.692-.438c1.174-.741 1.875-2.002 1.875-3.374 0-1.377-.695-2.641-1.86-3.38l-.688-.437.288-.762c.173-.454.26-.932.26-1.421 0-1.571-.916-2.946-2.252-3.599.167.837.252 1.697.252 2.57l-.011 2.208-.058.752-.739.151c-1.849.378-3.192 2.026-3.192 3.918 0 .467.093.945.275 1.423l.292.765-.692.438c-1.174.741-1.875 2.002-1.875 3.374 0 .961.364 1.9 1.024 2.644l.555.624-.515.657c-.696.889-1.064 1.952-1.064 3.075 0 2.757 2.243 5 5 5s5-2.243 5-5c0-1.597-.778-3.112-2.081-4.053zm-1.919-9.947c.552 0 1 .448 1 1s-.448 1-1 1-1-.448-1-1 .448-1 1-1zm-1 17c-1.654 0-3-1.346-3-3s1.346-3 3-3 3 1.346 3 3-1.346 3-3 3z"/><path d="m29.083 19c.224-1.504.918-2.841 1.917-3.872v-2.128c0-1.103-.897-2-2-2s-2 .897-2 2v6.263c.641-.166 1.308-.263 2-.263z"/><path d="m25 20.082v-11.082c0-1.103-.897-2-2-2s-2 .897-2 2v16h.263c.542-2.095 1.909-3.856 3.737-4.918z"/><path d="m11 26.462c.654-.264 1.321-.495 2-.688v-16.774c0-1.103-.897-2-2-2s-2 .897-2 2v9.765c1.234 1.163 2 2.8 2 4.616z"/><path d="m28 49c-.552 0-1 .449-1 1v6c0 1.654-1.346 3-3 3s-3-1.346-3-3v-8c0-.551-.448-1-1-1s-1 .449-1 1v2c0 1.654-1.346 3-3 3s-3-1.346-3-3v-10h2v10c0 .551.448 1 1 1s1-.449 1-1v-2c0-1.654 1.346-3 3-3s3 1.346 3 3v8c0 .551.448 1 1 1s1-.449 1-1v-6c0-.897.404-1.695 1.03-2.245-1.744-1.207-2.92-3.18-3.023-5.433-2.424-1.147-4.007-3.603-4.007-6.322 0-2.206 1.042-4.265 2.773-5.578-.507-1.067-.773-2.234-.773-3.422h-2.528c-2.481 0-4.963.529-7.235 1.529 2.326 1.33 3.763 3.766 3.763 6.471h-2c0-2.086-1.159-3.961-3.025-4.895l-.975-.487v-6.237c0-2.416-1.965-4.381-4.381-4.381-.932 0-1.619.68-1.619 1.515 0 .194.036.384.108.565 1.255 3.137 1.892 6.442 1.892 9.821v6.099c0 2.365.781 4.709 2.2 6.6l2.4 3.2c.903 1.204 1.4 2.695 1.4 4.2v10h18v-11c0-.551-.448-1-1-1z"/><path d="m43 15c-1.103 0-2 .897-2 2 0 .168.026.331.066.49.844.339 1.604.845 2.246 1.474.971-.164 1.688-.979 1.688-1.964 0-1.103-.897-2-2-2z"/><path d="m35.251 21.821c-.077-.194-.133-.394-.174-.596-.344-.133-.703-.225-1.077-.225-1.654 0-3 1.346-3 3s1.346 3 3 3c1.043 0 2.007-.553 2.55-1.428-.18-.753-.398-1.498-.688-2.224z"/><circle cx="30" cy="42" r="1"/><path d="m45.434 24.475 1.002-1.754c.369-.645.564-1.379.564-2.123 0-.645-.145-1.273-.421-1.847-.419.852-1.121 1.54-1.995 1.919.435.823.713 1.742.779 2.723z"/><path d="m31 20.026c.838-.635 1.87-1.026 3-1.026.431 0 .859.057 1.272.166.533-1.27 1.791-2.166 3.257-2.166.159 0 .316.012.473.023 0-.008-.002-.015-.002-.023 0-2.141 1.694-3.88 3.811-3.981l-.993-1.49c-.503-.755-.773-1.626-.805-2.528-.005 0-.009-.001-.013-.001-2.206 0-4 1.794-4 4 0 .271.027.541.081.804l.25 1.218-1.347-.022c-2.741 0-4.984 2.243-4.984 5z"/><path d="m19 25v-20c0-1.103-.897-2-2-2s-2 .897-2 2v20.308c1.146-.204 2.309-.308 3.472-.308z"/><path d="m38.423 46.897-1.167-1.556c-.158.178-.256.406-.256.659 0 .551.448 1 1 1 .149 0 .291-.041.423-.103z"/><path d="m49 41c0-1.309.356-2.56 1.037-3.66-.673-.991-1.037-2.152-1.037-3.34 0-1.8.8-3.473 2.173-4.607-.115-.464-.173-.93-.173-1.393 0-2.561 1.642-4.824 4.002-5.659l-.002-1.37c0-2.938-1.145-5.7-3.222-7.778l-5.657-5.657c-.341-.341-.811-.536-1.293-.536-1.008 0-1.828.82-1.828 1.829 0 .568.167 1.118.481 1.592l4.464 6.695c.69 1.034 1.055 2.238 1.055 3.482 0 1.091-.286 2.169-.827 3.115l-2.498 4.371.174 2.618c.067 1.023.68 1.944 1.598 2.403l-.895 1.789c-1.55-.775-2.584-2.331-2.699-4.059l-.487-7.31c-.169-2.537-2.294-4.525-4.837-4.525-.842 0-1.529.68-1.529 1.515 0 .194.036.384.108.565l.611 1.525c.85 2.125 1.28 4.363 1.28 6.651 0 1.927-.309 3.832-.918 5.662l-.721 2.162c-.239.718-.36 1.471-.36 2.24 0 1.531.49 3.003 1.382 4.189l2.817 3.757c1.161 1.548 1.801 3.466 1.801 5.401v8.333h12.933c-.278-4.328-.49-8.702-.643-13.036-3.528-.357-6.29-3.344-6.29-6.964z"/><circle cx="56" cy="41" r="1"/><path d="m32.886 46.228.294 1.082c.59 2.173 2.572 3.69 4.82 3.69.921 0 1.792-.254 2.565-.72-.23-.632-.541-1.234-.942-1.776-.479.31-1.035.496-1.623.496-1.654 0-3-1.346-3-3 0-.935.43-1.774 1.118-2.329-.723-1.312-1.118-2.802-1.118-4.305 0-.857.114-1.668.328-2.448-1.331-.307-2.328-1.496-2.328-2.918 0-1.654 1.346-3 3-3 .301 0 .592.061.875.148.075-.627.125-1.257.125-1.892 0-.413-.027-.824-.058-1.233-.843.615-1.865.977-2.942.977-2.757 0-5-2.243-5-5 0-1.094.363-2.099.962-2.923l-.1-.008c-.331-.047-.604-.069-.862-.069-3.309 0-6 2.691-6 6 0 1.045.286 2.061.807 2.968.548-.591 1.325-.968 2.193-.968 1.654 0 3 1.346 3 3s-1.346 3-3 3c-1.653 0-2.998-1.344-3-2.997-1.248.938-2 2.414-2 3.997 0 2.117 1.346 4.012 3.349 4.714l.713.25-.053.854c-.004.06-.009.12-.009.182 0 2.757 2.243 5 5 5 .631 0 1.251-.12 1.845-.356zm-5.886-4.228c0-1.654 1.346-3 3-3s3 1.346 3 3-1.346 3-3 3-3-1.346-3-3z"/><circle cx="26" cy="32" r="1"/><path d="m35 34c0 .531.453.945.951.985l.233-.7c.124-.373.23-.75.326-1.129-.153-.093-.322-.156-.51-.156-.552 0-1 .449-1 1z"/></g><g transform="matrix(1.40625 0 0 1.40625 217.5 217.5)" id="L1_13"><path d="m25.124 32.064.886-6.204-3.01 1.72v5.697z"/><path d="m43 20v-1c0-3.86-3.141-7-7-7h-8c-3.859 0-7 3.14-7 7v1h5.911c.418-1.172 1.542-2 2.823-2h4.531c1.281 0 2.405.828 2.823 2zm-17-2c-.552 0-1-.448-1-1s.448-1 1-1 1 .448 1 1-.448 1-1 1zm12-2c.552 0 1 .448 1 1s-.448 1-1 1-1-.448-1-1 .448-1 1-1z"/><path d="m26.561 22h-5.561v2.184c.676.241 1.235.714 1.589 1.327l3.779-2.159z"/><path d="m29 27c0 1.654 1.346 3 3 3s3-1.346 3-3-1.346-3-3-3-3 1.346-3 3zm4 0c0 .552-.448 1-1 1s-1-.448-1-1 .448-1 1-1 1 .448 1 1z"/><path d="m27.549 29.23-.54 3.78c-.007.042-.009.083-.009.123 0 .478.389.867.867.867h8.266c.478 0 .867-.389.867-.867 0-.04-.002-.081-.008-.121l-.541-3.783c-.823 1.636-2.499 2.771-4.451 2.771s-3.628-1.135-4.451-2.77z"/><path d="m18 24h1v-5c0-4.962 4.037-9 9-9h8c4.963 0 9 4.038 9 9v5h1c.091 0 .177.019.266.027.478-2.309.734-4.666.734-7.027 0-7.168-5.832-13-13-13h-4c-7.168 0-13 5.832-13 13 0 2.36.256 4.717.734 7.027.089-.008.175-.027.266-.027z"/><path d="m43 24.184v-2.184h-5.561l.193 1.352 3.779 2.159c.354-.613.913-1.086 1.589-1.327z"/><path d="m35.255 20.859c-.069-.49-.495-.859-.989-.859h-4.531c-.494 0-.92.369-.989.858l-.392 2.745c.912-.98 2.204-1.603 3.646-1.603s2.734.623 3.647 1.604z"/><path d="m41 33.277v-5.697l-3.01-1.72.887 6.204z"/><path d="m18 36h2c.552 0 1-.448 1-1v-8c0-.551-.448-1-1-1h-2c-.552 0-1 .449-1 1v8c0 .552.448 1 1 1z"/><path d="m31 36h2v26h-2z"/><path d="m39 46h2v2h-2z"/><path d="m44 36h2c.552 0 1-.448 1-1v-8c0-.551-.448-1-1-1h-2c-.552 0-1 .449-1 1v8c0 .552.448 1 1 1z"/><path d="m25.251 34.294-2.316 1.323c-.286 1.359-1.492 2.383-2.935 2.383h-1.476c-4.783 4.391-7.524 10.595-7.524 17.091v6.909h6v-11.172c0-1.534-.622-3.036-1.707-4.121l1.414-1.414c1.457 1.457 2.293 3.475 2.293 5.535v11.172h10v-26h-1.133c-1.167 0-2.169-.703-2.616-1.706z"/><path d="m4.833 11.753-1.54 1.54 1.414 1.414 1.54-1.54c.525.348 1.116.602 1.753.732v2.101h2v-2.101c.637-.13 1.228-.384 1.753-.732l1.54 1.54 1.414-1.414-1.54-1.54c.348-.525.602-1.116.732-1.753h2.101v-2h-2.101c-.13-.637-.384-1.229-.732-1.753l1.54-1.54-1.414-1.414-1.54 1.54c-.525-.348-1.116-.602-1.753-.732v-2.101h-2v2.101c-.637.13-1.228.384-1.753.732l-1.54-1.54-1.414 1.414 1.54 1.54c-.348.524-.602 1.116-.732 1.753h-2.101v2h2.101c.13.637.384 1.229.732 1.753zm5.167-3.753c0-.699-.186-1.365-.513-1.951 1.422.234 2.513 1.463 2.513 2.951 0 1.654-1.346 3-3 3-.499 0-.963-.134-1.378-.351 1.398-.624 2.378-2.022 2.378-3.649z"/><path d="m59.167 40.247 1.54-1.54-1.414-1.414-1.54 1.54c-.524-.348-1.116-.602-1.753-.732v-2.101h-2v2.101c-.637.13-1.229.384-1.753.732l-1.54-1.54-1.414 1.414 1.54 1.54c-.524.791-.833 1.736-.833 2.753 0 .296.038.583.087.865-1.202-2.169-2.75-4.156-4.612-5.865h-1.475c-1.443 0-2.649-1.024-2.935-2.382l-2.316-1.323c-.447 1.002-1.449 1.705-2.616 1.705h-1.133v26h10v-11.172c0-2.061.836-4.078 2.293-5.535l1.414 1.414c-1.085 1.085-1.707 2.587-1.707 4.121v11.172h6v-6.909c0-3.064-.617-6.06-1.763-8.835.709.819 1.663 1.419 2.763 1.643v2.101h2v-2.101c.637-.13 1.229-.384 1.753-.732l1.54 1.54 1.414-1.414-1.54-1.54c.348-.524.602-1.116.732-1.753h2.101v-2h-2.101c-.13-.637-.384-1.229-.732-1.753zm-20.167 13.753h-2v-2h2zm4 0h-2v-2h2zm0-4h-6v-6h6zm11-6c0 .699.186 1.365.514 1.951-1.423-.234-2.514-1.463-2.514-2.951 0-1.654 1.346-3 3-3 .499 0 .963.134 1.378.351-1.398.624-2.378 2.021-2.378 3.649z"/><path d="m59.816 10c-.302-.847-.969-1.514-1.816-1.816v-2.184h-2v2.184c-.847.302-1.514.969-1.816 1.816h-2.184v2h2.184c.302.847.969 1.514 1.816 1.816v2.184h2v-2.184c.847-.302 1.514-.969 1.816-1.816h2.184v-2zm-2.816 2c-.552 0-1-.449-1-1s.448-1 1-1 1 .449 1 1-.448 1-1 1z"/><path d="m8.414 26.414c.378-.378.586-.88.586-1.414s-.208-1.036-.586-1.414l-2-2c-.378-.378-.88-.586-1.414-.586s-1.036.208-1.414.586-.586.88-.586 1.414.208 1.036.586 1.414l2 2c.378.378.88.586 1.414.586s1.036-.208 1.414-.586z"/><path d="m10.414 53.586c-.378-.378-.88-.586-1.414-.586s-1.036.208-1.414.586l-4 4c-.378.378-.586.88-.586 1.414s.208 1.036.586 1.414.88.586 1.414.586 1.036-.208 1.414-.586l4-4c.378-.378.586-.88.586-1.414s-.208-1.036-.586-1.414z"/><path d="m55.586 32.414c.378.378.88.586 1.414.586s1.036-.208 1.414-.586l2-2c.378-.378.586-.88.586-1.414s-.208-1.036-.586-1.414-.88-.586-1.414-.586-1.036.208-1.414.586l-2 2c-.378.378-.586.88-.586 1.414s.208 1.036.586 1.414z"/><path d="m11.414 37.414 2-2c.378-.378.586-.88.586-1.414s-.208-1.036-.586-1.414-.88-.586-1.414-.586-1.036.208-1.414.586l-2 2c-.378.378-.586.88-.586 1.414s.208 1.036.586 1.414.88.586 1.414.586 1.036-.208 1.414-.586z"/><path d="m4 32h2v2h-2z"/><path d="m12 18h2v2h-2z"/><path d="m8 44h2v2h-2z"/><path d="m48 4h2v2h-2z"/><path d="m60 20h2v2h-2z"/><path d="m50 30h2v2h-2z"/><path d="m58 54h2v2h-2z"/><path d="m55 60h2v2h-2z"/><path d="m53 24c1.105 0 2-.895 2-2v-2c0-1.105-.895-2-2-2s-2 .895-2 2v2c0 1.105.895 2 2 2z"/></g><g transform="matrix(0.625 0 0 0.625 155 330)" id="L1_14"><path d="m39 21c0 2.021.759 3.864 2 5.274v-3.774z"/><path d="m55 21-2 1.5v3.774c1.241-1.41 2-3.253 2-5.274z"/><path d="m56.628 34.75c-.2.12-.392.25-.603.356l-2.025 1.012-1.131-.565c-.514-.257-.981-.581-1.407-.944l-.084.125c-.247.372-.378.805-.378 1.252 0 .861.479 1.635 1.248 2.02l1.752.876 1.752-.876c.77-.385 1.248-1.158 1.248-2.02 0-.441-.13-.867-.372-1.236z"/><path d="m51.667 21 3.333-2.5v-2.992c0-.444-.298-.84-.725-.961l-.648-.187c-1.891-.539-3.516-1.635-4.702-3.098-2.451 1.866-5.339 3.046-8.414 3.43l-.634.08c-.5.064-.877.491-.877.994v2.734l3.333 2.5zm-1.667-4c.552 0 1 .448 1 1s-.448 1-1 1-1-.448-1-1 .448-1 1-1zm-6 0c.552 0 1 .448 1 1s-.448 1-1 1-1-.448-1-1 .448-1 1-1z"/><path d="m54 41.118-2.646-1.323c-.001 0-.002-.001-.003-.001-.225.359-.351.767-.351 1.192 0 .861.479 1.635 1.248 2.02l1.752.876 1.752-.876c.77-.385 1.248-1.158 1.248-2.02 0-.425-.126-.834-.351-1.193-.001 0-.002.001-.003.001z"/><path d="m58.737 42.439c-.364 1.007-1.093 1.857-2.091 2.355l-1.625.812.625.625c.861.862 1.354 2.052 1.354 3.269v3.5h4v-1.917c0-3.062-.798-6.021-2.263-8.644z"/><path d="m14 9.586v.828c0 1.426 1.16 2.586 2.586 2.586.645 0 1.251-.251 1.707-.707l.862-.862 1.426 2.139c.598.895 1.597 1.43 2.674 1.43.461 0 .916-.11 1.334-.301-.291-.741-.728-1.424-1.296-1.992l1.414-1.414c1.457 1.457 2.293 3.475 2.293 5.535v.172c.177 0 .346.03.516.052l1.294-4.529c.127-.441.19-.897.19-1.353 0-1.649-.819-3.182-2.192-4.097l-.684-.455-.163-.649c-.437-1.749-1.999-2.969-3.8-2.969-.605 0-1.211.143-1.752.414l-1.409.704-.875-.438c-.892-.445-1.888-.68-2.883-.68-1.788 0-3.242 1.454-3.242 3.242 0 .866.337 1.681.949 2.293z"/><path d="m25 16.828c0-.045-.006-.09-.007-.135-.557.197-1.145.307-1.738.307-1.747 0-3.369-.868-4.338-2.321l-.163-.245c-.654.369-1.397.566-2.168.566-1.569 0-2.955-.794-3.782-2h-.804c-1.654 0-3 1.346-3 3v1.586l3.414 3.414h9.172l3.414-3.414zm-11 2.172c-.552 0-1-.448-1-1s.448-1 1-1 1 .448 1 1-.448 1-1 1zm6 0c-.552 0-1-.448-1-1s.448-1 1-1 1 .448 1 1-.448 1-1 1z"/><path d="m42.621 34.734-.084-.125c-.426.363-.892.686-1.407.944l-1.13.565-2.025-1.013c-.212-.105-.403-.235-.603-.355-.242.369-.372.795-.372 1.236 0 .861.479 1.635 1.248 2.02l1.752.876 1.752-.876c.77-.385 1.248-1.158 1.248-2.02 0-.447-.131-.88-.379-1.252z"/><path d="m48 36.932v2.001c.603-.069 1.197-.203 1.775-.399l.037-.056c-.375-.518-.632-1.117-.743-1.761-.352.094-.708.169-1.069.215z"/><path d="m49.168 30.756c-.699.156-1.423.244-2.168.244s-1.469-.088-2.168-.244c-.176.821-.484 1.6-.928 2.296l.382.572c.194.291.34.604.456.927 1.432.57 3.085.571 4.519 0 .116-.323.262-.637.455-.927l.382-.572c-.445-.696-.754-1.475-.93-2.296z"/><path d="m38.869 33.316 1.131.566.236-.118c1.44-.721 2.431-2.078 2.694-3.638-3.489-1.563-5.93-5.062-5.93-9.126v-5.234c0-1.51 1.13-2.79 2.628-2.977l.634-.08c2.775-.347 5.378-1.425 7.575-3.132-.372-.741-.649-1.54-.817-2.381l1.961-.393c.544 2.716 2.534 4.875 5.196 5.635l.648.187c1.28.365 2.175 1.552 2.175 2.884v5.491c0 4.064-2.441 7.563-5.93 9.125.263 1.56 1.254 2.918 2.694 3.638l.236.119 1.131-.565c2.387-1.193 3.869-3.592 3.869-6.261v-12.056c0-6.617-5.383-12-12-12s-12 5.383-12 12v12.056c0 2.669 1.482 5.068 3.869 6.26z"/><path d="m44.225 38.534c.578.195 1.173.329 1.775.399v-2.001c-.361-.045-.717-.121-1.069-.214-.111.644-.368 1.242-.743 1.761z"/><path d="m43 40.986c0-.425-.126-.834-.351-1.193-.001 0-.002.001-.003.001l-2.646 1.324-2.646-1.323c-.001 0-.002-.001-.003-.001-.225.359-.351.767-.351 1.192 0 .861.479 1.635 1.248 2.02l1.752.876 1.752-.876c.769-.385 1.248-1.158 1.248-2.02z"/><path d="m39.768 47.646c-.488.489-.768 1.164-.768 1.854s.28 1.365.768 1.854l.232.232.232-.232c.488-.489.768-1.164.768-1.854s-.28-1.365-.768-1.854l-.232-.232z"/><path d="m51 23h-8v4.918c1.178.684 2.542 1.082 4 1.082s2.822-.398 4-1.082z"/><path d="m27 19v4c1.103 0 2-.897 2-2s-.897-2-2-2z"/><path d="m52.354 52.768c-.861-.861-1.354-2.051-1.354-3.268s.493-2.407 1.354-3.268l.625-.625-1.625-.812c-1.453-.726-2.354-2.186-2.354-3.809 0-.061.011-.121.013-.181-.661.127-1.333.195-2.013.195s-1.352-.068-2.013-.195c.002.061.013.12.013.181 0 1.623-.901 3.083-2.354 3.809l-1.625.812.625.625c.861.861 1.354 2.051 1.354 3.268s-.493 2.407-1.354 3.268l-1.646 1.646-1-1v7.586h16v-7.586l-1 1z"/><path d="m3 55h4v6h-4z"/><path d="m5.481 17.304c.469-.194.981-.304 1.519-.304v-1c0-2.757 2.243-5 5-5h.059c-.025-.194-.059-.385-.059-.586l-.465-.465c-.99-.99-1.535-2.306-1.535-3.707 0-.107.025-.207.032-.313-3.03 1.492-5.032 4.599-5.032 8.08 0 .59.059 1.185.175 1.768z"/><path d="m7 23v-4c-1.103 0-2 .897-2 2s.897 2 2 2z"/><path d="m54 47.414-.232.232c-.488.489-.768 1.164-.768 1.854s.28 1.365.768 1.854l.232.232.232-.232c.488-.489.768-1.164.768-1.854s-.28-1.365-.768-1.854z"/><path d="m33 55h4v6h-4z"/><path d="m35.263 42.439c-1.465 2.623-2.263 5.582-2.263 8.644v1.917h4v-3.5c0-1.217.493-2.407 1.354-3.268l.625-.625-1.625-.812c-.999-.499-1.727-1.348-2.091-2.356z"/><path d="m27 55h4v6h-4z"/><path d="m24.222 37.139-1.729 4.323-5.493-3.296-5.492 3.296-1.729-4.323c-4.209 3.323-6.779 8.441-6.779 13.944v1.917h4v-3.586c0-.645-.251-1.251-.707-1.707l1.414-1.414c.834.834 1.293 1.942 1.293 3.121v11.586h16v-11.586c0-1.179.459-2.287 1.293-3.121l1.414 1.414c-.456.456-.707 1.063-.707 1.707v3.586h4v-1.917c0-5.503-2.57-10.621-6.778-13.944z"/><path d="m25 24v-3.586l-2 2v5.56c1.207-.913 2-2.347 2-3.974z"/><path d="m57 55h4v6h-4z"/><path d="m11.462 35.961 1.031 2.577 2.718-1.631-2.317-1.737c-.492.243-.97.506-1.432.791z"/><path d="m19.869 33.599-.649-2.599h-4.44l-.649 2.599 2.869 2.151z"/><path d="m22.538 35.961c-.462-.285-.941-.547-1.432-.791l-2.317 1.737 2.718 1.631z"/><path d="m9 24c0 1.627.793 3.061 2 3.974v-5.56l-2-2z"/><path d="m21 28.899v-5.899h-8v5.899c.323.066.658.101 1 .101h6c.342 0 .677-.035 1-.101z"/></g><g transform="matrix(0.625 0 0 0.625 67.5 67.5)" id="L1_15"><path d="m60 12c-1.302 0-2.402.839-2.816 2h-2.285c-.13-.637-.384-1.228-.732-1.753l1.54-1.54-1.414-1.414-1.54 1.54c-.525-.348-1.116-.602-1.753-.732v-2.285c1.161-.414 2-1.514 2-2.816 0-1.654-1.346-3-3-3s-3 1.346-3 3c0 1.302.839 2.402 2 2.816v2.285c-.637.13-1.229.384-1.753.732l-1.54-1.54-1.414 1.414 1.54 1.54c-.348.524-.602 1.116-.732 1.753h-2.285c-.414-1.161-1.514-2-2.816-2-1.654 0-3 1.346-3 3s1.346 3 3 3c1.302 0 2.402-.839 2.816-2h2.285c.13.637.384 1.228.732 1.753l-1.54 1.54 1.414 1.414 1.54-1.54c.525.348 1.116.602 1.753.732v2.285c-1.161.414-2 1.514-2 2.816 0 1.654 1.346 3 3 3s3-1.346 3-3c0-1.302-.839-2.402-2-2.816v-2.285c.637-.13 1.229-.384 1.753-.732l1.54 1.54 1.414-1.414-1.54-1.54c.348-.524.602-1.116.732-1.753h2.285c.414 1.161 1.514 2 2.816 2 1.654 0 3-1.346 3-3s-1.346-3-3-3zm-20 4c-.551 0-1-.448-1-1s.449-1 1-1 1 .448 1 1-.449 1-1 1zm10 10c-.551 0-1-.448-1-1s.449-1 1-1 1 .448 1 1-.449 1-1 1zm0-20c-.551 0-1-.448-1-1s.449-1 1-1 1 .448 1 1-.449 1-1 1zm2.322 10.877c-.776-.28-1.322-1.019-1.322-1.877 0-.86.546-1.596 1.322-1.876.417.516.678 1.163.678 1.876 0 .714-.261 1.361-.678 1.877zm7.678-.877c-.551 0-1-.448-1-1s.449-1 1-1 1 .448 1 1-.449 1-1 1z"/><path d="m29 10h6v2h-6z"/><circle cx="54" cy="39" r="2"/><path d="m29 14h6v2h-6z"/><circle cx="56" cy="56" r="1"/><path d="m44.622 51.649c.415.217.879.351 1.378.351 1.654 0 3-1.346 3-3 0-1.488-1.091-2.717-2.514-2.951.328.586.514 1.252.514 1.951 0 1.628-.98 3.025-2.378 3.649z"/><path d="m29 18h6v2h-6z"/><path d="m29 6h6v2h-6z"/><path d="m29 2h6v2h-6z"/><path d="m43 49c0 .346.071.673.179.982 1.018-.092 1.821-.941 1.821-1.982 0-.58-.253-1.114-.674-1.488-.799.539-1.326 1.453-1.326 2.488z"/><path d="m50 30c-2.761 0-5-2.239-5-5 0-1.161.412-2.216 1.076-3.064l-2.661-1.54c-.447-.259-.957-.396-1.474-.396-1.622 0-2.941 1.319-2.941 2.941v9.059c-2.206 0-4-1.794-4-4v-6h-6v6c0 2.206-1.794 4-4 4v-9.059c0-1.622-1.319-2.941-2.941-2.941-.517 0-1.027.137-1.473.396l-6.109 3.537c-7.08 4.098-11.477 11.725-11.477 19.904v11.163c0 3.859 3.14 7 7 7h10c2.757 0 5-2.243 5-5v-19c2.724 0 5.195-1.098 7-2.871 1.805 1.773 4.276 2.871 7 2.871v10h2.101c.13-.637.384-1.228.732-1.753l-1.54-1.54 1.414-1.414 1.54 1.54c.525-.348 1.116-.602 1.753-.732v-2.101h2v2.101c.637.13 1.229.384 1.753.732l1.54-1.54 1.414 1.414-1.54 1.54c.348.524.602 1.116.732 1.753h2.101v2h-2.101c-.13.637-.384 1.228-.732 1.753l1.54 1.54-1.414 1.414-1.54-1.54c-.525.348-1.116.602-1.753.732v2.101h-2v-2.101c-.637-.13-1.229-.384-1.753-.732l-1.54 1.54-1.414-1.414 1.54-1.54c-.348-.524-.602-1.116-.732-1.753h-2.101v7c0 2.757 2.243 5 5 5h10c3.86 0 7-3.141 7-7v-11.163c0-6.152-2.465-11.986-6.736-16.259-.876 1.446-2.45 2.422-4.264 2.422zm-35.868 27.496-1.328-2.324c-1.612-2.82-4.16-5.037-7.175-6.243l.743-1.857c1.289.516 2.503 1.194 3.614 2.009l2.157-3.595 1.715 1.029-2.325 3.874c1.175 1.108 2.199 2.378 3.007 3.791l1.328 2.324zm10.868-21.496h-3.586l-2.707 2.707-1.414-1.414 1.62-1.62c-.663-.247-1.276-.623-1.791-1.138l-.829-.828 1.414-1.414.829.828c.558.559 1.331.879 2.121.879h4.343zm16-9h2v2h-2zm5.878 7.535c-.515.515-1.128.891-1.791 1.138l1.62 1.62-1.414 1.414-2.707-2.707h-3.586v-2h4.343c.79 0 1.562-.32 2.121-.879l.829-.828 1.414 1.414zm4.122-3.535h2v2h-2zm5 28c-1.654 0-3-1.346-3-3s1.346-3 3-3 3 1.346 3 3-1.346 3-3 3zm3-11h-2v-2h2zm-1-9c0 2.206-1.794 4-4 4s-4-1.794-4-4 1.794-4 4-4 4 1.794 4 4z"/></g><g transform="matrix(1.09375 0 0 1.09375 315 140)" id="L1_16"><path d="m35.753 42.422-.474-1.422h-6.558l-.474 1.422 3.753 1.501z"/><path d="m45 57.025 3.954.101c-.241-3.452-1.685-6.571-3.954-8.924z"/><path d="m28 39h8c4.962 0 9-4.038 9-9v-11.35c-.746-.265-1.422-.672-2-1.19v.54c0 1.654-1.346 3-3 3h-16c-1.654 0-3-1.346-3-3v-2.816c-1.161.414-2 1.514-2 2.816v12c0 4.962 4.038 9 9 9zm11-4c-.39 0-.563.161-.999.659-.468.534-1.175 1.341-2.504 1.341s-2.036-.807-2.504-1.341c-.436-.498-.609-.659-.999-.659-.388 0-.561.161-.996.658-.467.534-1.173 1.342-2.501 1.342-1.329 0-2.034-.808-2.501-1.342-.435-.497-.609-.658-.996-.658v-2c1.328 0 2.034.808 2.501 1.342.435.497.608.658.996.658s.561-.161.996-.658c.466-.534 1.173-1.342 2.501-1.342 1.329 0 2.036.807 2.504 1.341.436.498.609.659.999.659s.563-.161.999-.659c.468-.534 1.175-1.341 2.504-1.341zm-14-6v-2h2v2zm14 0h-2v-2h2zm4 0h-2v-2h2zm-5.105-7.447.105.211c.381.762 1.147 1.236 2 1.236s1.619-.474 2-1.236l.105-.211 1.789.895-.105.211c-.722 1.444-2.174 2.341-3.789 2.341s-3.067-.897-3.789-2.342l-.105-.211zm-1.771 4.439-1.124.141v4.867h-2v-4.617l-2 .25v2.367h-2v-2.117l-.876.109-.248-1.984 8-1zm-15.913-3.334-.105-.211 1.789-.895.105.212c.381.762 1.147 1.236 2 1.236s1.619-.474 2-1.236l.105-.211 1.789.895-.105.211c-.722 1.444-2.174 2.341-3.789 2.341s-3.067-.897-3.789-2.342zm.789 4.342h2v2h-2z"/><path d="m19 57.025v-8.823c-2.269 2.353-3.713 5.472-3.954 8.924z"/><path d="m17.101 17c.399-1.956 1.943-3.5 3.899-3.899v-2.101c0-1.654 1.346-3 3-3h16c.846 0 1.608.355 2.154.921.496-.975 1.093-1.894 1.68-2.702-6.584-2.127-13.422-3.219-20.355-3.219h-3.861c-.341 0-.618.277-.618.618 0 .095.022.191.065.276l1.45 2.899-6.15.878c-.778.113-1.365.789-1.365 1.576 0 .654.393 1.233 1 1.477l3.372 1.348-.743 1.857-3.293-1.317-1.328 1.062c-.641.513-1.008 1.277-1.008 2.097 0 .577.191 1.149.538 1.611l1.118 1.491c1.093-1.151 2.634-1.873 4.344-1.873z"/><path d="m24 10c-.551 0-1 .449-1 1v7c0 .551.449 1 1 1h16c.551 0 1-.449 1-1v-7c0-.551-.449-1-1-1z"/><path d="m15 61h4v-1.974l-4 .102z"/><path d="m47 17c2.206 0 4-1.794 4-4 0-2.496-2.459-5.798-4-7.536-1.541 1.738-4 5.04-4 7.536 0 2.206 1.794 4 4 4z"/><path d="m17 19c-2.206 0-4 1.794-4 4s1.794 4 4 4z"/><path d="m25.606 44.321.424 1.059c.393.984 1.333 1.62 2.393 1.62.99 0 1.875-.564 2.305-1.432l-3.824-1.53c-.442.076-.874.17-1.298.283z"/><circle cx="32" cy="52" r="1"/><path d="m45 61h4v-1.872l-4-.102z"/><path d="m47 19v8c2.206 0 4-1.794 4-4s-1.794-4-4-4z"/><path d="m35.578 47c1.06 0 2-.636 2.393-1.62l.424-1.059c-.424-.113-.857-.208-1.297-.283l-3.824 1.53c.429.868 1.314 1.432 2.304 1.432z"/><path d="m41 61h2v-14.522c-.628-.446-1.298-.839-2-1.182z"/><path d="m32 47.264c-.851 1.072-2.151 1.736-3.578 1.736-1.344 0-2.571-.583-3.422-1.548v13.548h4.184c-.112-.314-.184-.648-.184-1 0-1.654 1.346-3 3-3s3 1.346 3 3c0 .352-.072.686-.184 1h4.184v-13.548c-.851.965-2.078 1.548-3.422 1.548-1.427 0-2.727-.664-3.578-1.736zm0 7.736c-1.654 0-3-1.346-3-3s1.346-3 3-3 3 1.346 3 3-1.346 3-3 3z"/><path d="m21 61h2v-15.704c-.702.343-1.372.736-2 1.182z"/><circle cx="32" cy="60" r="1"/></g><g transform="matrix(0.625 0 0 0.625 242.5 67.5)" id="L1_17"><path d="m17.123 61h11.754c1.503 0 2.85-.782 3.617-2h-18.988c.767 1.218 2.114 2 3.617 2z"/><path d="m23 10c0-3.86-3.14-7-7-7s-7 3.14-7 7v12c0 .551.449 1 1 1h13zm-10 11h-2v-2h2zm4 0h-2v-2h2zm4 0h-2v-2h2zm0-6c0 1.103-.897 2-2 2h-6c-1.103 0-2-.897-2-2v-6c0-1.103.897-2 2-2h6c1.103 0 2 .897 2 2z"/><path d="m27.425 35.767 1.175-1.567c.258-.344.4-.77.4-1.2 0-1.103-.897-2-2-2-.5 0-1 .118-1.448.342l-5.806 2.903c-.987.494-2.093.755-3.198.755-1.37 0-2.678-.388-3.808-1.103-.176 3.709-.441 7.414-.812 11.103h7.072v2h-7.29c-.073.667-.138 1.335-.218 2h5.508v2h-5.742l-.223 1.786c-.009.071-.008.143-.013.214h3.978v2h-3.669c.115.286.248.565.422.826l.782 1.174h6.577c.809-7.702 3.659-15.028 8.313-21.233z"/><path d="m13 9h6.001v6h-6.001z"/><path d="m54 5h-1v15.782l1.263-.345c.434-.118.737-.515.737-.965v-13.472c0-.551-.449-1-1-1z"/><path d="m29 10v12c0 1.654-1.346 3-3 3h-13.016c-.01 2.144-.053 4.291-.13 6.441l.051.051c.973.972 2.267 1.508 3.643 1.508.796 0 1.592-.188 2.304-.544l5.807-2.903c.723-.362 1.533-.553 2.341-.553 2.206 0 4 1.794 4 4 0 .86-.284 1.713-.8 2.4l-1.174 1.566c-4.395 5.86-7.099 12.768-7.9 20.033h12.34l.765-1.148c.504-.755.77-1.635.77-2.543 0-.169-.009-.337-.028-.505l-1.906-17.156c-.045-.394-.067-.791-.067-1.188 0-4.841 3.262-9.112 7.933-10.386l10.067-2.746v-16.327h-23.522c.96 1.431 1.522 3.151 1.522 5zm2 0c0-1.654 1.346-3 3-3h12c1.654 0 3 1.346 3 3v3.383c0 1.405-.998 2.639-2.372 2.933l-12.231 2.622c-.196.041-.393.062-.588.062-1.549 0-2.809-1.26-2.809-2.809z"/><path d="m25 10v13h1c.551 0 1-.449 1-1v-12c0-3.169-2.117-5.853-5.01-6.712 1.846 1.65 3.01 4.047 3.01 6.712z"/><path d="m33.98 16.981 12.229-2.621c.458-.097.791-.508.791-.977v-3.383c0-.551-.449-1-1-1h-12c-.551 0-1 .449-1 1v6.191c0 .503.468.899.98.79zm9.02-5.981h2v2h-2zm-4 0h2v2h-2zm-4 0h2v2h-2z"/></g><g transform="matrix(0.78125 0 0 0.78125 62.5 237.5)" id="L1_18"><path d="m35.595 43.01-7.278-7.278c-.319.068-.636.139-.96.179l.491 1.473 7.743 5.706z"/><path d="m35.586 37-6.834-6.834c-.123-.123-.264-.208-.397-.239-.896-.212-1.412-.833-1.79-1.287-.404-.484-.563-.64-.9-.64-.338 0-.496.156-.9.641-.098.117-.206.248-.329.38l9.564 9.565z"/><path d="m39 25h-2c0 2.83-1.093 5.529-3.021 7.564l2.988 2.989c.355-.403.781-.732 1.249-.987.513-1.314.784-2.693.784-4.11z"/><path d="m37.879 42c.618 0 1.121-.503 1.121-1.121 0-.295-.119-.584-.328-.793l-1.672-1.672-1.586 1.586 1.672 1.672c.209.209.498.328.793.328z"/><path d="m27.059 17h-5.643c-1.128 0-2.246-.373-3.148-1.049l-2.068-1.551c-.35-.262-.765-.4-1.2-.4-1.103 0-2 .897-2 2v9c0 4.962 4.037 9 9 9h4c.185 0 .366-.025.55-.036l-3.974-3.974c-.079.007-.161.01-.246.01-1.301 0-1.982-.818-2.434-1.36-.425-.512-.575-.64-.896-.64v-2c1.301 0 1.982.818 2.434 1.36.425.512.575.64.896.64.337 0 .495-.156.898-.64.452-.542 1.134-1.36 2.437-1.36 1.302 0 1.983.818 2.436 1.359.299.359.48.565.715.621.497.118.965.385 1.352.772l2.4 2.4c1.554-1.66 2.432-3.855 2.432-6.152v-.059c-4.165-.463-7.478-3.777-7.941-7.941zm-7.059 6c-.552 0-1-.448-1-1s.448-1 1-1 1 .448 1 1-.448 1-1 1zm8 0c-.552 0-1-.448-1-1s.448-1 1-1 1 .448 1 1-.448 1-1 1z"/><path d="m25.562 44c1.844 0 3.445-1.125 4.099-2.797l-2.272-1.674c-.707 1.155-1.836 1.98-3.15 2.305l.352 1.409c.112.445.511.757.971.757z"/><path d="m20.438 44c.46 0 .858-.312.971-.758l.352-1.408c-1.31-.324-2.436-1.146-3.144-2.297l-2.265 1.699c.664 1.652 2.26 2.764 4.086 2.764z"/><path d="m10.412 25.315.676 1.015c-.052-.437-.088-.879-.088-1.33v-9c0-2.206 1.794-4 4-4 .859 0 1.712.284 2.399.8l2.067 1.55c.56.419 1.252.65 1.95.65h5.643c.42-3.777 3.187-6.848 6.806-7.733-2.943-2.727-6.805-4.267-10.865-4.267-8.822 0-16 7.178-16 16l-.01 5.175c.304-.106.625-.175.964-.175.99 0 1.909.492 2.458 1.315z"/><path d="m13.997 32.524-.013 1.65-1.289 7.306 5.455-4.092.624-1.872c-1.848-.569-3.483-1.617-4.777-2.992z"/><path d="m25.939 37.981-.66-1.981h-3.279c-.425 0-.842-.03-1.254-.077l-.685 2.056c.471 1.213 1.628 2.021 2.939 2.021s2.468-.808 2.939-2.019z"/><path d="m37.879 44c-.111 0-.219-.021-.328-.033l-.402 8.083-1.998-.1.322-6.466-4.171-3.073c-1.058 2.162-3.242 3.589-5.74 3.589-1.073 0-2.03-.57-2.562-1.451-.532.881-1.489 1.451-2.562 1.451-2.473 0-4.648-1.409-5.716-3.542l-2.536 1.902-1.026 5.814-1.969-.348 2.643-14.982-5.07-.724-3.648 15.502c-.077.327-.116.664-.116 1.002 0 2.413 1.963 4.376 4.376 4.376 1.466 0 2.903-.505 4.048-1.42l4.576-3.511v10.931h14v-12.414l5.336 8.464c.763 1.221 2.077 1.95 3.517 1.95 2.287 0 4.147-1.86 4.147-4.147v-12.853h-2.217c-.452 1.167-1.58 2-2.904 2zm-13.879 11h-2v-2h2zm0-4h-2v-2h2z"/><path d="m12 32.211c0-.595-.174-1.17-.504-1.664l-2.748-4.123c-.178-.265-.475-.424-.794-.424-.526 0-.954.428-.954.954h-.015l-.01 5.175 5.025.718z"/><path d="m40.396 36c-.794 0-1.523.374-2.004.977l1.695 1.695c.369.369.624.832.771 1.328h2.142v-1.412c0-1.427-1.168-2.588-2.604-2.588z"/><path d="m54 9h-1-2-15c-3.859 0-7 3.14-7 7s3.141 7 7 7h5v3.586c0 .338.472.53.706.293l3.88-3.879h8.414c3.859 0 7-3.14 7-7s-3.141-7-7-7zm-15 12h-6v-2h4v-2h-4v-2h4v-2h-4v-2h6zm7 0h-2v-8h-3v-2h5zm4 0h-2v-2h2zm5 0h-3v-2h3c.552 0 1-.449 1-1s-.448-1-1-1h-3v-6h5v2h-3v2h1c1.654 0 3 1.346 3 3s-1.346 3-3 3z"/></g></defs><g fi:class="KUsePattern"><pattern id="pattern_L1_9" width="350" height="350" patternUnits="userSpaceOnUse"><use xlink:href="#L1_9" x="-350" y="-350"/><use xlink:href="#L1_9" x="0" y="-350"/><use xlink:href="#L1_9" x="350" y="-350"/><use xlink:href="#L1_9" x="-350" y="0"/><use xlink:href="#L1_9" x="0" y="0"/><use xlink:href="#L1_9" x="350" y="0"/><use xlink:href="#L1_9" x="-350" y="350"/><use xlink:href="#L1_9" x="0" y="350"/><use xlink:href="#L1_9" x="350" y="350"/></pattern><rect x="0" y="0" width="100%" height="100%" fill="url(#pattern_L1_9)"/></g><g fi:class="KUsePattern"><pattern id="pattern_L1_10" width="350" height="350" patternUnits="userSpaceOnUse"><use xlink:href="#L1_10" x="-350" y="-350"/><use xlink:href="#L1_10" x="0" y="-350"/><use xlink:href="#L1_10" x="350" y="-350"/><use xlink:href="#L1_10" x="-350" y="0"/><use xlink:href="#L1_10" x="0" y="0"/><use xlink:href="#L1_10" x="350" y="0"/><use xlink:href="#L1_10" x="-350" y="350"/><use xlink:href="#L1_10" x="0" y="350"/><use xlink:href="#L1_10" x="350" y="350"/></pattern><rect x="0" y="0" width="100%" height="100%" fill="url(#pattern_L1_10)"/></g><g fi:class="KUsePattern"><pattern id="pattern_L1_11" width="350" height="350" patternUnits="userSpaceOnUse"><use xlink:href="#L1_11" x="-350" y="-350"/><use xlink:href="#L1_11" x="0" y="-350"/><use xlink:href="#L1_11" x="350" y="-350"/><use xlink:href="#L1_11" x="-350" y="0"/><use xlink:href="#L1_11" x="0" y="0"/><use xlink:href="#L1_11" x="350" y="0"/><use xlink:href="#L1_11" x="-350" y="350"/><use xlink:href="#L1_11" x="0" y="350"/><use xlink:href="#L1_11" x="350" y="350"/></pattern><rect x="0" y="0" width="100%" height="100%" fill="url(#pattern_L1_11)"/></g><g fi:class="KUsePattern"><pattern id="pattern_L1_12" width="350" height="350" patternUnits="userSpaceOnUse"><use xlink:href="#L1_12" x="-350" y="-350"/><use xlink:href="#L1_12" x="0" y="-350"/><use xlink:href="#L1_12" x="350" y="-350"/><use xlink:href="#L1_12" x="-350" y="0"/><use xlink:href="#L1_12" x="0" y="0"/><use xlink:href="#L1_12" x="350" y="0"/><use xlink:href="#L1_12" x="-350" y="350"/><use xlink:href="#L1_12" x="0" y="350"/><use xlink:href="#L1_12" x="350" y="350"/></pattern><rect x="0" y="0" width="100%" height="100%" fill="url(#pattern_L1_12)"/></g><g fi:class="KUsePattern"><pattern id="pattern_L1_13" width="350" height="350" patternUnits="userSpaceOnUse"><use xlink:href="#L1_13" x="-350" y="-350"/><use xlink:href="#L1_13" x="0" y="-350"/><use xlink:href="#L1_13" x="350" y="-350"/><use xlink:href="#L1_13" x="-350" y="0"/><use xlink:href="#L1_13" x="0" y="0"/><use xlink:href="#L1_13" x="350" y="0"/><use xlink:href="#L1_13" x="-350" y="350"/><use xlink:href="#L1_13" x="0" y="350"/><use xlink:href="#L1_13" x="350" y="350"/></pattern><rect x="0" y="0" width="100%" height="100%" fill="url(#pattern_L1_13)"/></g><g fi:class="KUsePattern"><pattern id="pattern_L1_14" width="350" height="350" patternUnits="userSpaceOnUse"><use xlink:href="#L1_14" x="-350" y="-350"/><use xlink:href="#L1_14" x="0" y="-350"/><use xlink:href="#L1_14" x="350" y="-350"/><use xlink:href="#L1_14" x="-350" y="0"/><use xlink:href="#L1_14" x="0" y="0"/><use xlink:href="#L1_14" x="350" y="0"/><use xlink:href="#L1_14" x="-350" y="350"/><use xlink:href="#L1_14" x="0" y="350"/><use xlink:href="#L1_14" x="350" y="350"/></pattern><rect x="0" y="0" width="100%" height="100%" fill="url(#pattern_L1_14)"/></g><g fi:class="KUsePattern"><pattern id="pattern_L1_15" width="350" height="350" patternUnits="userSpaceOnUse"><use xlink:href="#L1_15" x="-350" y="-350"/><use xlink:href="#L1_15" x="0" y="-350"/><use xlink:href="#L1_15" x="350" y="-350"/><use xlink:href="#L1_15" x="-350" y="0"/><use xlink:href="#L1_15" x="0" y="0"/><use xlink:href="#L1_15" x="350" y="0"/><use xlink:href="#L1_15" x="-350" y="350"/><use xlink:href="#L1_15" x="0" y="350"/><use xlink:href="#L1_15" x="350" y="350"/></pattern><rect x="0" y="0" width="100%" height="100%" fill="url(#pattern_L1_15)"/></g><g fi:class="KUsePattern"><pattern id="pattern_L1_16" width="350" height="350" patternUnits="userSpaceOnUse"><use xlink:href="#L1_16" x="-350" y="-350"/><use xlink:href="#L1_16" x="0" y="-350"/><use xlink:href="#L1_16" x="350" y="-350"/><use xlink:href="#L1_16" x="-350" y="0"/><use xlink:href="#L1_16" x="0" y="0"/><use xlink:href="#L1_16" x="350" y="0"/><use xlink:href="#L1_16" x="-350" y="350"/><use xlink:href="#L1_16" x="0" y="350"/><use xlink:href="#L1_16" x="350" y="350"/></pattern><rect x="0" y="0" width="100%" height="100%" fill="url(#pattern_L1_16)"/></g><g fi:class="KUsePattern"><pattern id="pattern_L1_17" width="350" height="350" patternUnits="userSpaceOnUse"><use xlink:href="#L1_17" x="-350" y="-350"/><use xlink:href="#L1_17" x="0" y="-350"/><use xlink:href="#L1_17" x="350" y="-350"/><use xlink:href="#L1_17" x="-350" y="0"/><use xlink:href="#L1_17" x="0" y="0"/><use xlink:href="#L1_17" x="350" y="0"/><use xlink:href="#L1_17" x="-350" y="350"/><use xlink:href="#L1_17" x="0" y="350"/><use xlink:href="#L1_17" x="350" y="350"/></pattern><rect x="0" y="0" width="100%" height="100%" fill="url(#pattern_L1_17)"/></g><g fi:class="KUsePattern"><pattern id="pattern_L1_18" width="350" height="350" patternUnits="userSpaceOnUse"><use xlink:href="#L1_18" x="-350" y="-350"/><use xlink:href="#L1_18" x="0" y="-350"/><use xlink:href="#L1_18" x="350" y="-350"/><use xlink:href="#L1_18" x="-350" y="0"/><use xlink:href="#L1_18" x="0" y="0"/><use xlink:href="#L1_18" x="350" y="0"/><use xlink:href="#L1_18" x="-350" y="350"/><use xlink:href="#L1_18" x="0" y="350"/><use xlink:href="#L1_18" x="350" y="350"/></pattern><rect x="0" y="0" width="100%" height="100%" fill="url(#pattern_L1_18)"/></g></svg>